# AST/ASF file generated using VICON BodyLanguage
# -----------------------------------------------
:version 1.10
:name VICON
:units
  mass 1.0
  length 0.45
  angle deg
:documentation
   .ast/.asf automatically generated from VICON data using
   VICON BodyBuilder and BodyLanguage model FoxedUp or BRILLIANT.MOD
:root
   order TX TY TZ RX RY RZ
   axis XYZ
   position 0 0 0  
   orientation 0 0 0 
:bonedata
  begin
     id 1 
     name lhipjoint
     direction 0.734343 -0.627749 0.258209 
     length 2.5437 
     axis 0 0 0  XYZ
  end
  begin
     id 2 
     name lfemur
     direction 0.34202 -0.939693 0  
     length 6.7391  
     axis 0 0 20  XYZ
    dof rx ry rz
    limits (-160.0 20.0)
           (-70.0 70.0)
           (-60.0 70.0)
  end
  begin
     id 3 
     name ltibia
     direction 0.34202 -0.939693 0   
     length 7.21536   
     axis 0 0 20   XYZ
    dof rx
    limits (-10.0 170.0)
  end
  begin
     id 4 
     name lfoot
     direction 0.0489572 -0.134509 0.989702   
     length 1.61313   
     axis -90 7.62852e-016 20   XYZ
    dof rx rz
    limits (-45.0 90.0)
           (-70.0 20.0)
  end
  begin
     id 5 
     name ltoes
     direction 1.53451e-011 -4.21692e-011 1   
     length 0.823104   
     axis -90 7.62852e-016 20   XYZ
    dof rx
    limits (-90.0 20.0)
  end
  begin
     id 6 
     name rhipjoint
     direction -0.746398 -0.615468 0.253157   
     length 2.59446  
     axis 0 0 0  XYZ 
  end
  begin
     id 7 
     name rfemur
     direction -0.34202 -0.939693 0   
     length 6.7075   
     axis 0 0 -20   XYZ
    dof rx ry rz
    limits (-160.0 20.0)
           (-70.0 70.0)
           (-70.0 60.0)
  end
  begin
     id 8 
     name rtibia
     direction -0.34202 -0.939693 0   
     length 7.27262   
     axis 0 0 -20   XYZ
    dof rx
    limits (-10.0 170.0)
 end
 begin
     id 9 
     name rfoot
     direction -0.0455203 -0.125066 0.991104   
     length 1.91095  
     axis -90 -7.62852e-016 -20   XYZ
    dof rx rz
    limits (-45.0 90.0)
           (-20.0 70.0)
  end
  begin
     id 10 
     name rtoes
     direction -1.53601e-011 -4.21913e-011 1   
     length 0.969037   
     axis -90 -7.62852e-016 -20   XYZ
    dof rx
    limits (-90.0 20.0)
  end
  begin
     id 11 
     name lowerback
     direction 0.0181546 0.999122 -0.0377542   
     length 1.99916   
     axis 0 0 0   XYZ
    dof rx ry rz
    limits (-20.0 45.0)
           (-30.0 30.0)
           (-30.0 30.0)
  end
  begin
     id 12 
     name upperback
     direction 0.0203486 0.99589 0.0882534   
     length 1.951   
     axis 0 0 0   XYZ
    dof rx ry rz
    limits (-20.0 45.0)
           (-30.0 30.0)
           (-30.0 30.0)
  end
  begin
     id 13 
     name thorax
     direction 0.0131685 0.994241 0.106355   
     length 1.97461   
     axis 0 0 0   XYZ
    dof rx ry rz
    limits (-20.0 45.0)
           (-30.0 30.0)
           (-30.0 30.0)
  end
  begin
     id 14 
     name lowerneck
     direction -0.0281395 0.999325 0.023617   
     length 1.7959   
     axis 0 0 0   XYZ
    dof rx ry rz
    limits (-20.0 45.0)
           (-30.0 30.0)
           (-30.0 30.0)
  end
  begin
     id 15 
     name upperneck
     direction 0.0288721 0.991984 -0.123019   
     length 1.79917   
     axis 0 0 0   XYZ
    dof rx ry rz
    limits (-20.0 45.0)
           (-30.0 30.0)
           (-30.0 30.0)
  end
  begin
     id 16
     name head
     direction 0.0133797 0.998944 -0.0439492  
     length 1.80902  
     axis 0 0 0   XYZ
    dof rx ry rz
    limits (-20.0 45.0)
           (-30.0 30.0)
           (-30.0 30.0)
  end
  begin
     id 17 
     name lclavicle
     direction 0.919195 0.377107 0.113449  
     length 3.17815  
     axis 0 0 0   XYZ
    dof ry rz
    limits (-20.0 10.0)
           (0.0 20.0)
  end
  begin
     id 18 
     name lhumerus
     direction 1 -4.48959e-011 2.13129e-027   
     length 4.84137   
     axis 180 -30 -90   XYZ
    dof rx ry rz
    limits (-60.0 90.0)
           (-90.0 90.0)
           (-90.0 90.0)
  end
  begin
     id 19
     name lradius
     direction 1 -4.48957e-011 -6.30627e-028   
     length 3.2452   
     axis 180 -30 -90   XYZ
    dof rx
    limits (-10.0 170.0)
  end
  begin
     id 20
     name lwrist
     direction 1 -4.4901e-011 9.13299e-027   
     length 1.6226   
     axis -6.84618e-015 90 90   XYZ
    dof ry
    limits (-180.0 0.0)
 end
  begin
     id 21 
     name lhand
     direction 1 -4.48816e-011 1.82293e-026   
     length 0.521221   
     axis -1.16502e-014 90 90   XYZ
    dof rx rz
    limits (-90.0 90.0)
           (-45.0 45.0)
  end
  begin
     id 22 
     name lfingers
     direction 1 -4.49108e-011 3.65687e-026   
     length 0.420221   
     axis -2.33008e-014 90 90   XYZ
    dof rx
    limits (0.0 90.0)
  end
  begin
     id 23
     name lthumb
     direction 0.707107 -6.34943e-011 0.707107   
     length 0.603356   
     axis -90 45 5.69224e-014   XYZ
    dof rx rz
    limits (-45.0 45.0)
           (-45.0 45.0)
  end
  begin
     id 24 
     name rclavicle
     direction -0.90847 0.38596 0.160368   
     length 3.12973  
     axis 0 0 0   XYZ 
    dof ry rz
    limits (-10.0 20.0)
           (-20.0 0.0)
  end
  begin
     id 25 
     name rhumerus
     direction -1 -4.48974e-011 4.47268e-028  
     length 4.72284   
     axis 180 30 90   XYZ
    dof rx ry rz
    limits (-90.0 60.0)
           (-90.0 90.0)
           (-90.0 90.0)
  end
  begin
     id 26 
     name rradius
     direction -1 -4.48969e-011 3.43203e-027   
     length 3.23459   
     axis 180 30 90   XYZ
    dof rx
    limits (-10.0 170.0)
  end
  begin
     id 27 
     name rwrist
     direction -1 -4.48969e-011 9.12911e-027   
     length 1.6173   
     axis -6.84618e-015 -90 -90   XYZ
    dof ry
    limits (-180.0 0.0)
  end
  begin
     id 28
     name rhand
     direction -1 -4.49194e-011 1.83006e-026   
     length 0.307416   
     axis -1.16502e-014 -90 -90   XYZ
    dof rx rz
    limits (-90.0 90.0)
           (-45.0 45.0)
  end
  begin
     id 29
     name rfingers
     direction -1 -4.48423e-011 3.63103e-026   
     length 0.247847   
     axis -2.33008e-014 -90 -90   XYZ
    dof rx
    limits (0.0 90.0)
  end
  begin
     id 30
     name rthumb
     direction -0.707107 -6.34802e-011 0.707107   
     length 0.35586   
     axis -90 -45 -5.69224e-014   XYZ
    dof rx rz
    limits (-45.0 45.0)
           (-45.0 45.0)
  end
:hierarchy
  begin
    root lhipjoint rhipjoint lowerback
    lhipjoint lfemur
    lfemur ltibia
    ltibia lfoot
    lfoot ltoes
    rhipjoint rfemur
    rfemur rtibia
    rtibia rfoot
    rfoot rtoes
    lowerback upperback
    upperback thorax
    thorax lowerneck lclavicle rclavicle
    lowerneck upperneck
    upperneck head
    lclavicle lhumerus
    lhumerus lradius
    lradius lwrist
    lwrist lhand lthumb
    lhand lfingers
    rclavicle rhumerus
    rhumerus rradius
    rradius rwrist
    rwrist rhand rthumb
    rhand rfingers
  end

#!OML:ASF H:\Terrain\Patient Classification 1\Animal1\Tuesday\Animal1.ASF
:FULLY-SPECIFIED
:DEGREES
538
root 12.5518 15.9075 -13.3985 21.2563 -29.0972 -5.26383
lowerback 8.91126 -1.7032 6.96021
upperback 0.509041 -1.44755 2.96178
thorax -4.57163 -0.838367 -0.630338
lowerneck 8.9208 2.6197 -6.06764
upperneck -4.07263 3.21259 6.62356
head -3.18557 1.44967 3.13572
rclavicle 3.55825e-014 1.03368e-014
rhumerus -39.0477 29.5058 -96.6282
rradius 58.5915
rwrist -0.0941727
rhand -17.6893 24.4258
rfingers 7.12502
rthumb 8.57021 -5.38024
lclavicle 3.55825e-014 1.03368e-014
lhumerus -47.7778 -1.44726 87.7963
lradius 60.4414
lwrist -27.625
lhand -0.986724 46.2469
lfingers 7.12502
lthumb 24.6449 74.68
rfemur -43.5274 16.0401 21.4072
rtibia 36.4968
rfoot -9.54579 -11.2155
rtoes -7.60717
lfemur -35.4959 12.3902 -10.0262
ltibia 43.3262
lfoot -22.9451 14.1279
ltoes -11.9258
539
root 12.5441 15.9088 -13.3999 21.2183 -29.157 -5.12948
lowerback 8.94479 -1.63014 6.7787
upperback 0.54795 -1.36936 2.93134
thorax -4.54069 -0.794946 -0.571751
lowerneck 8.91012 2.56428 -6.08875
upperneck -4.18542 3.14537 6.68091
head -3.22003 1.41481 3.16536
rclavicle 4.39314e-014 1.82882e-014
rhumerus -38.9281 29.3194 -96.4966
rradius 58.7222
rwrist -0.0419746
rhand -17.8264 24.3573
rfingers 7.12502
rthumb 8.43791 -5.45412
lclavicle 4.39314e-014 1.82882e-014
lhumerus -47.7219 -1.51836 87.8509
lradius 60.5355
lwrist -27.7905
lhand -0.874332 46.3174
lfingers 7.12502
lthumb 24.7527 74.7359
rfemur -43.6625 16.113 21.2368
rtibia 36.6326
rfoot -9.71291 -11.1664
rtoes -6.81754
lfemur -35.5 12.4354 -10.1588
ltibia 43.3259
lfoot -23.0012 14.0261
ltoes -11.3445
540
root 12.5381 15.9059 -13.4058 21.3176 -29.0986 -5.24661
lowerback 8.96522 -1.6286 6.78573
upperback 0.608218 -1.36546 3.02163
thorax -4.48654 -0.7905 -0.482682
lowerneck 8.8582 2.58885 -6.14484
upperneck -4.50428 3.20091 6.94148
head -2.9912 1.4168 2.93482
rclavicle -1.80894e-014 3.77691e-014
rhumerus -38.7907 29.3413 -96.3817
rradius 58.8448
rwrist -0.0546002
rhand -17.9234 24.1624
rfingers 7.12502
rthumb 8.34431 -5.65282
lclavicle -1.80894e-014 3.77691e-014
lhumerus -47.5696 -1.49347 87.9479
lradius 60.4971
lwrist -27.8178
lhand -1.13916 46.3127
lfingers 7.12502
lthumb 24.4988 74.7658
rfemur -43.7907 16.1741 21.3494
rtibia 36.7304
rfoot -9.67821 -11.2628
rtoes -7.10101
lfemur -35.6269 12.5025 -10.0172
ltibia 43.4462
lfoot -22.9685 13.8824
ltoes -10.2821
541
root 12.5355 15.897 -13.4215 21.4781 -29.1412 -5.29585
lowerback 8.948 -1.62988 6.65444
upperback 0.701661 -1.38573 3.0924
thorax -4.37487 -0.793657 -0.33589
lowerneck 8.82873 2.65294 -6.23638
upperneck -4.76853 3.2896 6.92884
head -3.07289 1.46269 2.94058
rclavicle -1.96797e-014 -1.15295e-014
rhumerus -38.5217 29.5108 -96.2781
rradius 58.9417
rwrist -0.0877309
rhand -17.965 23.8873
rfingers 7.12502
rthumb 8.30411 -5.9295
lclavicle -1.96797e-014 -1.15295e-014
lhumerus -47.2988 -1.51356 87.9692
lradius 60.3989
lwrist -27.6529
lhand -1.40593 46.0189
lfingers 7.12502
lthumb 24.2431 74.5063
rfemur -44.0662 16.2611 21.3673
rtibia 36.7812
rfoot -9.44849 -11.376
rtoes -7.45371
lfemur -35.9369 12.6425 -9.98505
ltibia 43.6805
lfoot -23.0052 13.7797
ltoes -9.7687
542
root 12.5325 15.8852 -13.4382 21.7207 -29.2977 -5.3922
lowerback 8.85844 -1.54616 6.59782
upperback 0.830425 -1.29919 3.05353
thorax -4.18414 -0.744081 -0.361567
lowerneck 9.09891 2.66975 -6.10632
upperneck -5.47052 3.33897 6.82576
head -3.32756 1.4813 2.88147
rclavicle 1.23246e-014 1.35174e-014
rhumerus -38.1881 29.4245 -96.1998
rradius 59.0865
rwrist -0.0130572
rhand -18.162 23.6051
rfingers 7.12502
rthumb 8.11399 -6.21915
lclavicle 1.23246e-014 1.35174e-014
lhumerus -47.1138 -1.63231 87.8147
lradius 60.5906
lwrist -27.6225
lhand -1.73586 45.6518
lfingers 7.12502
lthumb 23.9267 74.181
rfemur -44.4285 16.4758 21.3382
rtibia 36.8419
rfoot -9.30146 -11.2824
rtoes -6.11892
lfemur -36.3077 12.9085 -9.96393
ltibia 43.9776
lfoot -23.0848 13.7908
ltoes -10.529
543
root 12.5327 15.8745 -13.4501 22.015 -29.4049 -5.79709
lowerback 8.89348 -1.49306 6.94441
upperback 0.98558 -1.20367 3.03958
thorax -4.04309 -0.697528 -0.583068
lowerneck 9.59005 2.71918 -6.14861
upperneck -6.51825 3.42813 6.88
head -3.73228 1.51032 2.89435
rclavicle 1.03368e-014 -4.73108e-014
rhumerus -37.9421 29.3421 -96.1808
rradius 59.2783
rwrist 0.0530205
rhand -18.4115 23.3157
rfingers 7.12502
rthumb 7.8732 -6.51767
lclavicle 1.03368e-014 -4.73108e-014
lhumerus -46.8394 -1.51563 87.6664
lradius 60.6832
lwrist -27.7876
lhand -2.10157 45.6117
lfingers 7.12502
lthumb 23.576 74.1865
rfemur -44.6408 16.6988 21.6333
rtibia 36.9312
rfoot -9.25676 -11.1228
rtoes -5.1859
lfemur -36.5612 13.2178 -9.63632
ltibia 44.2617
lfoot -23.1529 13.9185
ltoes -12.1216
544
root 12.5327 15.8659 -13.4627 22.0304 -29.5321 -5.79775
lowerback 9.05101 -1.52678 6.8942
upperback 1.15651 -1.25111 3.00779
thorax -3.95434 -0.715486 -0.581846
lowerneck 10.0646 2.80775 -6.37927
upperneck -7.51854 3.54587 6.96414
head -4.12772 1.5572 2.94606
rclavicle 2.04748e-014 -3.49861e-014
rhumerus -37.6305 29.5319 -96.158
rradius 59.3558
rwrist 0.062643
rhand -18.4314 23.2371
rfingers 7.12502
rthumb 7.85401 -6.59702
lclavicle 2.04748e-014 -3.49861e-014
lhumerus -46.7012 -1.02688 87.4968
lradius 61.0098
lwrist -28.0242
lhand -1.74617 45.7416
lfingers 7.12502
lthumb 23.9168 74.2722
rfemur -44.7849 16.8009 21.5915
rtibia 37.0343
rfoot -9.31749 -11.1746
rtoes -6.34031
lfemur -36.7276 13.3101 -9.65332
ltibia 44.4921
lfoot -23.2569 14.0093
ltoes -12.275
545
root 12.5314 15.8591 -13.4754 21.7774 -29.6544 -5.58112
lowerback 9.29261 -1.53477 6.6302
upperback 1.42971 -1.28585 2.93939
thorax -3.80061 -0.721315 -0.501477
lowerneck 10.6948 2.81857 -6.44884
upperneck -8.72336 3.55813 6.83191
head -4.59985 1.55649 2.91131
rclavicle -3.73715e-014 1.66979e-014
rhumerus -37.1357 29.6094 -95.9879
rradius 59.3825
rwrist 0.192973
rhand -18.3272 23.296
rfingers 7.12502
rthumb 7.9545 -6.53429
lclavicle -3.73715e-014 1.66979e-014
lhumerus -46.6346 -0.906065 87.3385
lradius 61.5423
lwrist -28.0087
lhand -1.50674 45.8369
lfingers 7.12502
lthumb 24.1464 74.3372
rfemur -44.7624 16.8496 21.3938
rtibia 37.1395
rfoot -9.45755 -11.215
rtoes -6.96643
lfemur -36.706 13.364 -9.84216
ltibia 44.7231
lfoot -23.344 14.0299
ltoes -11.7961
546
root 12.5319 15.8493 -13.49 21.6755 -29.6613 -5.68012
lowerback 9.58979 -1.50862 6.67786
upperback 1.71822 -1.23887 2.94823
thorax -3.6616 -0.691655 -0.523001
lowerneck 11.5261 2.81165 -6.57731
upperneck -10.2891 3.54869 6.7965
head -5.22253 1.53761 2.91941
rclavicle 8.80616e-014 -1.70955e-014
rhumerus -36.6979 29.5763 -95.7023
rradius 59.6043
rwrist 0.389648
rhand -18.3202 23.1227
rfingers 7.12502
rthumb 7.96128 -6.70736
lclavicle 8.80616e-014 -1.70955e-014
lhumerus -46.5091 -1.16406 87.2506
lradius 62.0341
lwrist -27.7954
lhand -1.94866 45.7951
lfingers 7.12502
lthumb 23.7226 74.351
rfemur -44.7298 16.8865 21.5315
rtibia 37.2447
rfoot -9.55154 -11.116
rtoes -6.3348
lfemur -36.7322 13.5799 -9.73666
ltibia 45.0152
lfoot -23.3211 14.0838
ltoes -13.1791
547
root 12.5368 15.8358 -13.5109 21.6664 -29.6494 -5.98199
lowerback 10.0761 -1.53082 6.84105
upperback 1.99666 -1.22324 3.03332
thorax -3.64 -0.681807 -0.52025
lowerneck 12.0277 2.93934 -6.73591
upperneck -11.5445 3.72333 6.80149
head -5.71354 1.61517 2.93301
rclavicle 5.56597e-015 4.81059e-014
rhumerus -36.361 29.8238 -95.4748
rradius 60.0474
rwrist 0.372792
rhand -18.3274 22.6368
rfingers 7.12502
rthumb 7.95436 -7.19352
lclavicle 5.56597e-015 4.81059e-014
lhumerus -46.3884 -1.04274 87.1878
lradius 62.5325
lwrist -27.9233
lhand -2.27081 45.5111
lfingers 7.12502
lthumb 23.4136 74.1067
rfemur -44.6866 16.9659 21.8658
rtibia 37.293
rfoot -9.60687 -11.0465
rtoes -6.47697
lfemur -36.8421 13.8781 -9.44044
ltibia 45.4201
lfoot -23.3254 14.0253
ltoes -14.5397
548
root 12.5483 15.8205 -13.5301 21.552 -29.5438 -6.49312
lowerback 10.7517 -1.64551 7.33482
upperback 2.39891 -1.28349 3.11768
thorax -3.60256 -0.710445 -0.688598
lowerneck 12.3475 3.08317 -6.71492
upperneck -12.7047 3.92899 6.61301
head -6.14329 1.71812 2.85299
rclavicle -5.1684e-014 -9.54166e-015
rhumerus -35.8614 30.1016 -95.3337
rradius 60.3904
rwrist 0.326496
rhand -18.2662 22.2904
rfingers 7.12502
rthumb 8.01346 -7.53764
lclavicle -5.1684e-014 -9.54166e-015
lhumerus -46.1456 -0.782828 87.1082
lradius 62.9737
lwrist -28.1009
lhand -2.67427 45.2812
lfingers 7.12502
lthumb 23.0265 73.9257
rfemur -44.3426 16.9963 22.4859
rtibia 37.3004
rfoot -9.68886 -11.0304
rtoes -6.98244
lfemur -36.8066 14.1195 -8.8675
ltibia 45.9032
lfoot -23.4653 13.6862
ltoes -14.1305
549
root 12.5607 15.8037 -13.5485 21.5207 -29.405 -7.08523
lowerback 11.2905 -1.80357 7.91425
upperback 2.89344 -1.40772 3.23552
thorax -3.39559 -0.763935 -0.864103
lowerneck 12.7623 3.21658 -6.88221
upperneck -14.1742 4.10832 6.5443
head -6.69675 1.80603 2.84518
rclavicle 7.10655e-014 1.76918e-014
rhumerus -35.2119 30.2742 -95.1392
rradius 60.7063
rwrist 0.580058
rhand -18.1307 22.0597
rfingers 7.12502
rthumb 8.14421 -7.76332
lclavicle 7.10655e-014 1.76918e-014
lhumerus -45.8178 -0.611774 86.9352
lradius 63.6041
lwrist -27.9256
lhand -3.08624 45.3541
lfingers 7.12502
lthumb 22.6312 74.0473
rfemur -44.0619 17.0027 23.1722
rtibia 37.3557
rfoot -9.60611 -10.9339
rtoes -6.58041
lfemur -36.8461 14.3335 -8.20851
ltibia 46.4017
lfoot -23.6396 13.2501
ltoes -12.9886
550
root 12.5705 15.7898 -13.5713 21.4103 -29.4091 -7.33461
lowerback 11.8491 -1.91642 7.99866
upperback 3.36106 -1.52293 3.32714
thorax -3.21649 -0.809867 -0.79144
lowerneck 13.1049 3.38711 -7.2547
upperneck -15.6739 4.33558 6.67958
head -7.2678 1.91316 2.93473
rclavicle 3.47873e-014 -1.64991e-014
rhumerus -34.6808 30.463 -94.8539
rradius 61.2979
rwrist 0.955302
rhand -18.0592 21.6824
rfingers 7.12502
rthumb 8.21321 -8.138
lclavicle 3.47873e-014 -1.64991e-014
lhumerus -45.5659 -0.361575 86.7615
lradius 64.3583
lwrist -27.8829
lhand -3.35169 45.5054
lfingers 7.12502
lthumb 22.3764 74.2295
rfemur -43.9815 17.0566 23.4495
rtibia 37.4792
rfoot -9.59747 -10.7124
rtoes -5.1458
lfemur -36.9508 14.4971 -7.91657
ltibia 46.9072
lfoot -23.9433 12.8155
ltoes -11.2187
551
root 12.5768 15.7724 -13.5984 21.305 -29.3516 -7.41019
lowerback 12.4166 -1.99267 7.92019
upperback 3.7032 -1.5979 3.39712
thorax -3.16712 -0.841138 -0.653271
lowerneck 13.3056 3.47386 -7.441
upperneck -16.7362 4.44555 6.65679
head -7.66244 1.97208 2.953
rclavicle 2.98177e-016 1.25234e-014
rhumerus -34.5014 30.5268 -94.5705
rradius 62.1946
rwrist 1.3355
rhand -18.205 21.2691
rfingers 7.12502
rthumb 8.07244 -8.55675
lclavicle 2.98177e-016 1.25234e-014
lhumerus -45.6958 -0.0871152 86.6359
lradius 65.3182
lwrist -28.3696
lhand -3.42663 45.3965
lfingers 7.12502
lthumb 22.3045 74.1292
rfemur -44.0497 17.0437 23.5823
rtibia 37.6795
rfoot -9.77178 -10.6095
rtoes -3.78977
lfemur -37.2279 14.6678 -7.80655
ltibia 47.4542
lfoot -24.1657 12.5693
ltoes -10.9201
552
root 12.585 15.7425 -13.6304 21.6415 -29.1129 -7.81385
lowerback 12.7922 -2.08936 8.17582
upperback 3.89166 -1.66365 3.57185
thorax -3.17712 -0.873326 -0.593268
lowerneck 13.2423 3.48463 -7.41245
upperneck -17.2491 4.43858 6.37877
head -7.81276 1.99266 2.8612
rclavicle -8.94531e-015 1.39149e-015
rhumerus -34.6269 30.4603 -94.3577
rradius 63.2916
rwrist 1.88875
rhand -18.4006 21.109
rfingers 7.12502
rthumb 7.88369 -8.72395
lclavicle -8.94531e-015 1.39149e-015
lhumerus -46.0731 0.187578 86.5291
lradius 66.4202
lwrist -29.0894
lhand -3.35611 44.9745
lfingers 7.12502
lthumb 22.3722 73.6991
rfemur -44.4501 17.0114 24.0008
rtibia 37.9052
rfoot -9.7289 -10.7078
rtoes -3.90264
lfemur -37.9295 14.9879 -7.44339
ltibia 48.022
lfoot -23.9459 12.7199
ltoes -13.5529
